<svg width="408" height="311" viewBox="0 0 408 311" fill="none" xmlns="http://www.w3.org/2000/svg">
<line x1="391.132" y1="81.6356" x2="203.714" y2="196.851" stroke="#101C27" stroke-width="30" stroke-linecap="round"/>
<line x1="15" y1="-15" x2="235" y2="-15" transform="matrix(0.851898 0.523708 0.523708 -0.851898 10.0801 61.0015)" stroke="#101C27" stroke-width="30" stroke-linecap="round"/>
<line x1="392.07" y1="82.2155" x2="315.294" y2="294.011" stroke="#101C27" stroke-width="30" stroke-linecap="round"/>
<line x1="15" y1="-15" x2="240.282" y2="-15" transform="matrix(0.340799 0.940136 0.940136 -0.340799 24.0801 63.0015)" stroke="#101C27" stroke-width="30" stroke-linecap="round"/>
<path d="M231.08 294.001H315.08" stroke="#101C27" stroke-width="30" stroke-linecap="round"/>
<path d="M229.08 294.001L251.08 230.001" stroke="#101C27" stroke-width="30" stroke-linecap="round"/>
<path d="M176.08 294.001H92.0801" stroke="#101C27" stroke-width="30" stroke-linecap="round"/>
<path d="M178.08 294.001L156.08 230.001" stroke="#101C27" stroke-width="30" stroke-linecap="round"/>
<path d="M144.08 109.954L264.08 110.001" stroke="#101C27" stroke-width="24" stroke-linecap="round"/>
<path d="M282.08 48.0015L264.08 110.001" stroke="#101C27" stroke-width="24" stroke-linecap="round"/>
<path d="M282.08 48.0015L241.08 68.0015" stroke="#101C27" stroke-width="24" stroke-linecap="round"/>
<path d="M204.08 12.0015L241.08 68.0015" stroke="#101C27" stroke-width="24" stroke-linecap="round"/>
<path d="M125.08 48.0015L166.08 68.0015" stroke="#101C27" stroke-width="24" stroke-linecap="round"/>
<path d="M203.08 12.0015L166.08 68.0015" stroke="#101C27" stroke-width="24" stroke-linecap="round"/>
<path d="M125.08 48.0015L143.08 110.001" stroke="#101C27" stroke-width="24" stroke-linecap="round"/>
</svg>
