<svg width="1329" height="392" viewBox="0 0 1329 392" fill="none" xmlns="http://www.w3.org/2000/svg">
<path d="M473.819 329.611C457.717 329.611 443.682 325.586 431.714 317.534C419.746 309.266 411.368 297.842 406.581 283.262C402.664 271.512 400.706 258.238 400.706 243.442C400.706 227.992 402.555 214.936 406.254 204.274C411.042 189.912 419.419 178.706 431.387 170.654C443.355 162.386 457.608 158.251 474.146 158.251C489.813 158.251 503.413 162.386 514.946 170.654C526.696 178.706 535.074 189.803 540.079 203.947C543.995 215.045 545.954 228.101 545.954 243.115C545.954 258.347 543.995 271.73 540.079 283.262C535.291 297.842 527.022 309.266 515.272 317.534C503.522 325.586 489.704 329.611 473.819 329.611ZM473.819 302.52C482.523 302.52 490.139 300.126 496.667 295.339C503.195 290.334 507.874 283.371 510.702 274.45C513.096 266.181 514.293 255.954 514.293 243.768C514.293 231.582 513.205 221.464 511.029 213.413C508.2 204.491 503.522 197.637 496.994 192.85C490.466 187.845 482.523 185.342 473.166 185.342C464.245 185.342 456.52 187.845 449.992 192.85C443.464 197.637 438.786 204.491 435.957 213.413C433.563 221.029 432.366 231.147 432.366 243.768C432.366 256.389 433.563 266.616 435.957 274.45C438.568 283.371 443.138 290.334 449.666 295.339C456.411 300.126 464.462 302.52 473.819 302.52ZM651.279 158.578C669.122 158.578 683.266 163.8 693.711 174.245C704.156 184.472 709.378 198.398 709.378 216.024V323.736C709.378 325.912 708.29 327 706.114 327H681.308C679.132 327 678.044 325.912 678.044 323.736V222.226C678.044 211.346 674.889 202.533 668.578 195.787C662.268 189.042 653.89 185.669 643.445 185.669C633.218 185.669 624.84 189.042 618.312 195.787C611.784 202.533 608.52 211.237 608.52 221.899V323.736C608.52 325.912 607.432 327 605.256 327H580.45C578.274 327 577.186 325.912 577.186 323.736V164.126C577.186 161.95 578.274 160.862 580.45 160.862H605.256C607.432 160.862 608.52 161.95 608.52 164.126V175.877C608.52 176.312 608.629 176.638 608.847 176.856C609.282 177.074 609.608 176.965 609.826 176.53C619.183 164.562 633.001 158.578 651.279 158.578ZM805.011 158.251C818.284 158.251 829.817 160.645 839.609 165.432C849.619 170.002 857.235 176.53 862.457 185.016C867.897 193.285 870.617 202.75 870.617 213.413V323.736C870.617 325.912 869.529 327 867.353 327H842.547C840.371 327 839.283 325.912 839.283 323.736V311.986C839.283 310.898 838.739 310.68 837.651 311.333C831.993 317.208 825.03 321.778 816.761 325.042C808.71 328.088 799.68 329.611 789.67 329.611C773.568 329.611 760.185 325.586 749.523 317.534C739.078 309.266 733.856 296.862 733.856 280.325C733.856 263.352 739.731 250.078 751.481 240.504C763.449 230.712 780.096 225.816 801.42 225.816H837.977C838.848 225.816 839.283 225.381 839.283 224.51V215.698C839.283 206.123 836.454 198.725 830.796 193.502C825.356 188.062 816.979 185.342 805.664 185.342C796.524 185.342 789.017 187.192 783.142 190.891C777.484 194.373 774.003 199.16 772.697 205.253C772.044 207.429 770.739 208.408 768.78 208.19L742.342 204.6C740.166 204.165 739.187 203.294 739.404 201.989C741.145 189.15 748 178.706 759.968 170.654C771.936 162.386 786.95 158.251 805.011 158.251ZM796.524 303.173C808.057 303.173 818.067 300.126 826.553 294.034C835.04 287.941 839.283 280.216 839.283 270.859V251.602C839.283 250.731 838.848 250.296 837.977 250.296H807.296C794.457 250.296 784.23 252.798 776.614 257.803C768.998 262.808 765.19 269.771 765.19 278.693C765.19 286.744 768.019 292.837 773.676 296.971C779.552 301.106 787.168 303.173 796.524 303.173ZM975.914 159.23C982.878 159.23 989.188 160.645 994.846 163.474C996.369 164.126 996.913 165.432 996.478 167.39L991.255 191.87C991.038 193.829 989.732 194.482 987.338 193.829C983.639 192.306 979.287 191.544 974.282 191.544L969.713 191.87C959.486 192.306 950.999 195.896 944.254 202.642C937.726 209.17 934.462 217.765 934.462 228.427V323.736C934.462 325.912 933.374 327 931.198 327H906.391C904.215 327 903.127 325.912 903.127 323.736V164.126C903.127 161.95 904.215 160.862 906.391 160.862H931.198C933.374 160.862 934.462 161.95 934.462 164.126V181.426C934.462 182.078 934.57 182.514 934.788 182.731C935.223 182.731 935.55 182.514 935.767 182.078C945.559 166.846 958.942 159.23 975.914 159.23ZM1078.5 329.611C1061.96 329.611 1047.81 325.477 1036.06 317.208C1024.31 308.722 1016.26 297.298 1011.91 282.936C1008.65 272.926 1007.01 259.762 1007.01 243.442C1007.01 228.427 1008.65 215.262 1011.91 203.947C1016.26 190.021 1024.31 178.923 1036.06 170.654C1048.03 162.386 1062.18 158.251 1078.5 158.251C1094.82 158.251 1109.07 162.386 1121.25 170.654C1133.44 178.923 1141.38 189.368 1145.08 201.989C1146.39 205.47 1147.26 209.061 1147.69 212.76C1147.69 214.501 1146.71 215.589 1144.75 216.024L1120.27 219.614H1119.62C1118.1 219.614 1117.01 218.635 1116.36 216.677L1115.38 211.454C1113.64 204.056 1109.39 197.854 1102.65 192.85C1095.9 187.845 1087.74 185.342 1078.17 185.342C1068.81 185.342 1060.87 187.845 1054.34 192.85C1047.81 197.854 1043.57 204.491 1041.61 212.76C1039.65 220.594 1038.67 230.93 1038.67 243.768C1038.67 256.389 1039.65 266.616 1041.61 274.45C1043.79 283.154 1048.03 290.008 1054.34 295.013C1060.87 300.018 1068.81 302.52 1078.17 302.52C1087.74 302.52 1095.9 300.018 1102.65 295.013C1109.61 290.008 1113.96 283.48 1115.71 275.429C1115.92 275.211 1115.92 274.994 1115.71 274.776C1115.71 274.341 1115.81 274.014 1116.03 273.797V272.491C1116.68 270.75 1117.88 270.098 1119.62 270.533L1144.1 274.45C1145.84 274.885 1146.71 275.755 1146.71 277.061V278.366C1146.71 280.325 1146.17 282.718 1145.08 285.547C1141.38 298.821 1133.44 309.483 1121.25 317.534C1109.07 325.586 1094.82 329.611 1078.5 329.611ZM1248.02 158.578C1265.86 158.578 1280 163.8 1290.45 174.245C1300.89 184.472 1306.12 198.398 1306.12 216.024V323.736C1306.12 325.912 1305.03 327 1302.85 327H1278.05C1275.87 327 1274.78 325.912 1274.78 323.736V222.226C1274.78 211.346 1271.63 202.533 1265.32 195.787C1259.01 189.042 1250.63 185.669 1240.18 185.669C1229.96 185.669 1221.58 189.042 1215.05 195.787C1208.52 202.533 1205.26 211.237 1205.26 221.899V323.736C1205.26 325.912 1204.17 327 1201.99 327H1177.19C1175.01 327 1173.92 325.912 1173.92 323.736V101.784C1173.92 99.608 1175.01 98.52 1177.19 98.52H1201.99C1204.17 98.52 1205.26 99.608 1205.26 101.784V175.877C1205.26 176.312 1205.37 176.638 1205.59 176.856C1206.02 177.074 1206.35 176.965 1206.56 176.53C1215.92 164.562 1229.74 158.578 1248.02 158.578Z" fill="#101C27"/>
<line x1="391.132" y1="97.6341" x2="203.714" y2="212.85" stroke="#101C27" stroke-width="30" stroke-linecap="round"/>
<line x1="15" y1="-15" x2="235" y2="-15" transform="matrix(0.851898 0.523708 0.523708 -0.851898 10.0801 77)" stroke="#101C27" stroke-width="30" stroke-linecap="round"/>
<line x1="392.07" y1="98.214" x2="315.294" y2="310.01" stroke="#101C27" stroke-width="30" stroke-linecap="round"/>
<line x1="15" y1="-15" x2="240.282" y2="-15" transform="matrix(0.340799 0.940136 0.940136 -0.340799 24.0801 79)" stroke="#101C27" stroke-width="30" stroke-linecap="round"/>
<path d="M231.08 310H315.08" stroke="#101C27" stroke-width="30" stroke-linecap="round"/>
<path d="M229.08 310L251.08 246" stroke="#101C27" stroke-width="30" stroke-linecap="round"/>
<path d="M176.08 310H92.0801" stroke="#101C27" stroke-width="30" stroke-linecap="round"/>
<path d="M178.08 310L156.08 246" stroke="#101C27" stroke-width="30" stroke-linecap="round"/>
<path d="M144.08 125.952L264.08 126" stroke="#101C27" stroke-width="24" stroke-linecap="round"/>
<path d="M282.08 64L264.08 126" stroke="#101C27" stroke-width="24" stroke-linecap="round"/>
<path d="M282.08 64L241.08 84" stroke="#101C27" stroke-width="24" stroke-linecap="round"/>
<path d="M204.08 28L241.08 84" stroke="#101C27" stroke-width="24" stroke-linecap="round"/>
<path d="M125.08 64L166.08 84" stroke="#101C27" stroke-width="24" stroke-linecap="round"/>
<path d="M203.08 28L166.08 84" stroke="#101C27" stroke-width="24" stroke-linecap="round"/>
<path d="M125.08 64L143.08 126" stroke="#101C27" stroke-width="24" stroke-linecap="round"/>
</svg>
